<svg xmlns="http://www.w3.org/2000/svg" viewBox="0 0 1024 1024"><circle cx="512" cy="512" r="512" style="fill:#310610"/><ellipse cx="512" cy="502" rx="434.36" ry="206.71" transform="translate(-81.56 99.71) rotate(-10.31)" style="fill:#7c2b28;stroke:#fff;stroke-miterlimit:10;stroke-width:5.6692914962768555px"/><path d="M385.1,361.92q17.44-3.6,30.62.66a45.39,45.39,0,0,1,21.77,14.82q8.58,10.58,11.8,26.14.57,2.77,1.15,6.58c.39,2.54.65,5,.78,7.28s.18,4.85.29,7.38.13,5,.06,7.32q.09,18-6.93,32.22a62.46,62.46,0,0,1-20.95,23.91q-13.92,9.64-34.53,13.9l-45.59,9.41-4.05-140.2ZM369.93,483.06l12.78-2.64q18.54-3.82,29.82-15t11.36-30.3c0-2.14,0-4.33-.07-6.55s-.14-4.43-.18-6.63q-.21-2.54-.68-5.8t-.91-5.44q-2.32-11.19-8-17.4a25.8,25.8,0,0,0-14.14-7.93,46.67,46.67,0,0,0-18.82.42l-13.88,2.87Z" style="fill:#fff"/><path d="M467.05,376.41l24.77-5.11.51,18,1.49-.3a30.83,30.83,0,0,1,6.89-15.17q5.82-7.31,16.93-9.59a27.89,27.89,0,0,1,6.84-.64c2,.09,3.5.19,4.35.29L528.74,388a27.06,27.06,0,0,0-5.51-.41,33,33,0,0,0-6.53.63q-8.54,1.75-13.4,6.69a26.78,26.78,0,0,0-6.81,12.05,54.58,54.58,0,0,0-1.77,15.45L496.39,480l-26.16,5.41Z" style="fill:#fff"/><path d="M239.94,674.09l-4.08-140.3,48.66-10q13.58-2.81,24.1.14a35,35,0,0,1,17.29,10.64A41.17,41.17,0,0,1,335,553.71c.31,1.52.58,3.15.8,4.9s.37,3.47.45,5.17A50.7,50.7,0,0,1,332,587.5a44.66,44.66,0,0,1-15.51,18.18q-10.65,7.47-27.4,10.93l-23.68,4.89,1.34,47Zm23.49-124.4,1.38,49.21,19.52-4q9.51-2,15.05-6.16a22.88,22.88,0,0,0,7.76-9.71,28,28,0,0,0,2-11.48c0-1-.07-2.17-.19-3.42a31.55,31.55,0,0,0-.46-3.26,20.68,20.68,0,0,0-4.76-10,17.64,17.64,0,0,0-8.81-5.16,27.38,27.38,0,0,0-12.29.06Z" style="fill:#fff"/><path d="M376.14,643.12a36.78,36.78,0,0,1-18.66-10.56q-7.71-8-10.59-22a72,72,0,0,1-1.17-7.92q-.35-4-.39-7.15L345,583.79q-.36-14.19,4.79-24.81a45.22,45.22,0,0,1,14.6-17.37,56.47,56.47,0,0,1,21.74-9.3A48.09,48.09,0,0,1,406,532a37.68,37.68,0,0,1,15.58,7.16A40.3,40.3,0,0,1,432.33,552a46.59,46.59,0,0,1,5.11,16.76q.26,2.74.45,6.42c.13,2.45.18,5.48.17,9.06L371.46,598a25.24,25.24,0,0,0,.17,4,43,43,0,0,0,.66,4.46,25.41,25.41,0,0,0,4.11,9.64,17,17,0,0,0,8.15,6.22q5.16,1.93,12.49.42a27,27,0,0,0,8.86-3.38,18.09,18.09,0,0,0,5.74-5.47,13.61,13.61,0,0,0,2.23-6.72L438.74,602a32.34,32.34,0,0,1-3.81,16.8,43,43,0,0,1-13.23,15q-8.94,6.54-22.11,9.27A54.36,54.36,0,0,1,376.14,643.12Zm36.05-71.35q-.09-.71-.12-1.32A24.43,24.43,0,0,0,409,559.51a16,16,0,0,0-7.67-6.83c-3.29-1.42-7.21-1.67-11.77-.72a23.39,23.39,0,0,0-9.37,4.15,21.42,21.42,0,0,0-6.53,8.17,28.92,28.92,0,0,0-2.52,12c0,.9,0,1.8,0,2.69s0,1.79,0,2.69l41.13-8.49A7.66,7.66,0,0,0,412.19,571.77Z" style="fill:#fff"/><path d="M502.3,618.05a29.21,29.21,0,0,1-11.78-6,25.46,25.46,0,0,1-6.95-9.15l-1.39.28,1.73,56.89-26.26,5.42L453.3,520.4,479.56,515l.42,19,1.59-.32a35.47,35.47,0,0,1,3.91-10.83,29.61,29.61,0,0,1,8.25-9.3,33.51,33.51,0,0,1,13.59-5.76Q523.09,504.54,535,513t15.67,26.57c.45,2.18.85,4.49,1.22,6.93a47.77,47.77,0,0,1,.55,7.17l.37,14.29a61.62,61.62,0,0,1-3.26,23.25,41.39,41.39,0,0,1-11.69,17.45q-8,7-20,9.51A33.6,33.6,0,0,1,502.3,618.05Zm-14.5-26.66a20.33,20.33,0,0,0,9.2,6.26,19.84,19.84,0,0,0,10.2.58A21.45,21.45,0,0,0,518,592.76a24.76,24.76,0,0,0,6.33-10.35A40.27,40.27,0,0,0,526.16,569l-.35-11.71q-.12-1.62-.51-4.23c-.26-1.74-.53-3.3-.81-4.69a25.77,25.77,0,0,0-4.88-11.08,17.85,17.85,0,0,0-8.52-6,21.72,21.72,0,0,0-11.28-.36,21.06,21.06,0,0,0-10.74,5.53,25,25,0,0,0-6.33,10.65,44.41,44.41,0,0,0-1.81,14.48l.51,11.47a31.42,31.42,0,0,0,.31,3.5c.15,1.11.28,1.89.38,2.35Q483.75,586.75,487.8,591.39Z" style="fill:#fff"/><path d="M616,594.57a29.14,29.14,0,0,1-11.78-6,25.35,25.35,0,0,1-7-9.15l-1.39.29,1.72,56.88L571.32,642,567,496.92l26.26-5.42.42,19,1.58-.33a35.57,35.57,0,0,1,3.91-10.83,29.65,29.65,0,0,1,8.26-9.3A33.44,33.44,0,0,1,621,484.32q15.75-3.26,27.68,5.18t15.66,26.58q.67,3.27,1.23,6.92a49.26,49.26,0,0,1,.55,7.18l.37,14.28a61.82,61.82,0,0,1-3.26,23.25,41.48,41.48,0,0,1-11.69,17.45q-7.95,7-20,9.51A33.43,33.43,0,0,1,616,594.57Zm-14.5-26.66a20.28,20.28,0,0,0,9.2,6.26,19.79,19.79,0,0,0,10.19.58,21.29,21.29,0,0,0,10.75-5.47A24.61,24.61,0,0,0,638,558.93a40.24,40.24,0,0,0,1.88-13.41l-.35-11.7c-.09-1.09-.26-2.5-.52-4.24s-.52-3.3-.81-4.69a25.82,25.82,0,0,0-4.87-11.08,17.85,17.85,0,0,0-8.52-6,21.76,21.76,0,0,0-11.29-.35A21.05,21.05,0,0,0,602.74,513a25,25,0,0,0-6.32,10.66,44.37,44.37,0,0,0-1.82,14.48l.51,11.46a34,34,0,0,0,.31,3.5c.16,1.11.29,1.89.38,2.35Q597.42,563.27,601.48,567.91Z" style="fill:#fff"/><path d="M707.75,574.64a37,37,0,0,1-18.66-10.56q-7.7-8-10.58-22a69.76,69.76,0,0,1-1.18-7.92q-.35-4-.39-7.15l-.35-11.71q-.35-14.17,4.8-24.8A45.22,45.22,0,0,1,696,473.12a56.67,56.67,0,0,1,21.75-9.3,48.22,48.22,0,0,1,19.92-.34,37.76,37.76,0,0,1,15.58,7.17,40.16,40.16,0,0,1,10.71,12.82,46.91,46.91,0,0,1,5.12,16.77q.26,2.73.44,6.41t.17,9.06l-66.6,13.76a27.74,27.74,0,0,0,.17,4c.17,1.66.39,3.14.66,4.46a25.66,25.66,0,0,0,4.11,9.64,16.87,16.87,0,0,0,8.16,6.22q5.15,1.93,12.48.42a26.66,26.66,0,0,0,8.86-3.38,17.88,17.88,0,0,0,5.74-5.47,13.57,13.57,0,0,0,2.23-6.71l24.88-5.14a32.45,32.45,0,0,1-3.82,16.8,42.89,42.89,0,0,1-13.23,15q-8.92,6.54-22.11,9.27A54.36,54.36,0,0,1,707.75,574.64Zm36-71.36a13,13,0,0,1-.11-1.32A24.23,24.23,0,0,0,740.6,491a16,16,0,0,0-7.66-6.84q-4.94-2.13-11.78-.72a23.33,23.33,0,0,0-9.37,4.16,21.37,21.37,0,0,0-6.52,8.16,29.12,29.12,0,0,0-2.53,12c0,.9,0,1.79,0,2.69s0,1.79,0,2.68l41.12-8.49A6.9,6.9,0,0,0,743.8,503.28Z" style="fill:#fff"/><path d="M784.92,451.91l24.77-5.12.51,18,1.49-.31a30.71,30.71,0,0,1,6.89-15.16q5.82-7.31,16.93-9.59a27.41,27.41,0,0,1,6.84-.64c2,.09,3.5.19,4.35.29l-.09,24.09a27.12,27.12,0,0,0-5.51-.41,33.1,33.1,0,0,0-6.54.62q-8.52,1.77-13.39,6.7a26.78,26.78,0,0,0-6.81,12.05,54.54,54.54,0,0,0-1.77,15.45l1.67,57.62-26.16,5.4Z" style="fill:#fff"/></svg>